<svg width="240" height="47" viewBox="0 0 240 47" fill="none" xmlns="http://www.w3.org/2000/svg">
<rect width="240" height="47" rx="8" fill="#050708"/>
<path d="M37.6227 28.6534C37.2996 29.3999 36.917 30.0872 36.4738 30.719C35.8697 31.5804 35.3751 32.1766 34.9938 32.5077C34.4029 33.0511 33.7697 33.3294 33.0917 33.3453C32.605 33.3453 32.018 33.2068 31.3348 32.9258C30.6492 32.6462 30.0192 32.5077 29.4432 32.5077C28.8391 32.5077 28.1911 32.6462 27.4981 32.9258C26.804 33.2068 26.2449 33.3532 25.8174 33.3677C25.1672 33.3954 24.5191 33.1092 23.8723 32.5077C23.4594 32.1476 22.943 31.5302 22.3243 30.6557C21.6606 29.7218 21.1149 28.6388 20.6874 27.4042C20.2295 26.0706 20 24.7793 20 23.529C20 22.0969 20.3095 20.8618 20.9293 19.8267C21.4164 18.9953 22.0645 18.3394 22.8756 17.858C23.6867 17.3765 24.5631 17.1312 25.5068 17.1155C26.0233 17.1155 26.7005 17.2752 27.542 17.5892C28.3812 17.9041 28.9201 18.0639 29.1563 18.0639C29.3329 18.0639 29.9315 17.8771 30.9463 17.5047C31.9059 17.1594 32.7158 17.0164 33.3793 17.0727C35.1772 17.2178 36.5279 17.9266 37.4262 19.2034C35.8183 20.1777 35.0229 21.5423 35.0387 23.2928C35.0532 24.6563 35.5479 25.791 36.52 26.6919C36.9606 27.11 37.4526 27.4332 38 27.6627C37.8813 28.007 37.756 28.3368 37.6227 28.6534ZM33.4993 12.4275C33.4993 13.4962 33.1089 14.4941 32.3306 15.4177C31.3915 16.5157 30.2555 17.1502 29.0236 17.0501C29.0079 16.9218 28.9988 16.7869 28.9988 16.6451C28.9988 15.6191 29.4454 14.5211 30.2386 13.6234C30.6346 13.1688 31.1382 12.7909 31.7489 12.4894C32.3583 12.1924 32.9348 12.0281 33.4769 12C33.4927 12.1429 33.4993 12.2858 33.4993 12.4275V12.4275Z" fill="white"/>
<path d="M87.4885 29L91.2551 18.7834H92.2322V20.4331H91.8286L88.8267 29H87.4885ZM89.1948 26.0759L89.5913 24.9927H94.2075L94.604 26.0759H89.1948ZM94.9438 29L91.9419 20.4331V18.7834H92.5154L96.282 29H94.9438ZM97.9175 31.5488V21.3677H99.1494V22.5854H99.2627C99.4185 22.3022 99.6143 22.0615 99.8503 21.8633C100.086 21.6603 100.355 21.5046 100.657 21.396C100.96 21.2874 101.288 21.2332 101.642 21.2332C102.288 21.2332 102.85 21.3984 103.327 21.7288C103.808 22.0544 104.181 22.5123 104.445 23.1023C104.71 23.6923 104.842 24.3838 104.842 25.1768V25.1909C104.842 25.9886 104.71 26.6825 104.445 27.2725C104.181 27.8625 103.808 28.3203 103.327 28.646C102.85 28.9717 102.288 29.1345 101.642 29.1345C101.292 29.1345 100.962 29.0802 100.65 28.9717C100.344 28.8584 100.07 28.7026 99.8291 28.5044C99.5931 28.3062 99.4043 28.0701 99.2627 27.7964H99.1494V31.5488H97.9175ZM101.358 28.0442C101.826 28.0442 102.225 27.9309 102.555 27.7043C102.885 27.4731 103.138 27.145 103.312 26.7202C103.492 26.2907 103.582 25.7809 103.582 25.1909V25.1768C103.582 24.582 103.492 24.0723 103.312 23.6475C103.138 23.2227 102.885 22.897 102.555 22.6704C102.225 22.4391 101.826 22.3235 101.358 22.3235C100.896 22.3235 100.497 22.4391 100.162 22.6704C99.8267 22.9017 99.5695 23.2297 99.3901 23.6545C99.2108 24.0793 99.1211 24.5868 99.1211 25.1768V25.1909C99.1211 25.7762 99.2108 26.2836 99.3901 26.7131C99.5695 27.1379 99.8267 27.466 100.162 27.6973C100.497 27.9285 100.896 28.0442 101.358 28.0442ZM106.768 31.5488V21.3677H108V22.5854H108.113C108.269 22.3022 108.464 22.0615 108.7 21.8633C108.936 21.6603 109.205 21.5046 109.508 21.396C109.81 21.2874 110.138 21.2332 110.492 21.2332C111.138 21.2332 111.7 21.3984 112.177 21.7288C112.658 22.0544 113.031 22.5123 113.295 23.1023C113.56 23.6923 113.692 24.3838 113.692 25.1768V25.1909C113.692 25.9886 113.56 26.6825 113.295 27.2725C113.031 27.8625 112.658 28.3203 112.177 28.646C111.7 28.9717 111.138 29.1345 110.492 29.1345C110.142 29.1345 109.812 29.0802 109.5 28.9717C109.194 28.8584 108.92 28.7026 108.679 28.5044C108.443 28.3062 108.254 28.0701 108.113 27.7964H108V31.5488H106.768ZM110.208 28.0442C110.676 28.0442 111.075 27.9309 111.405 27.7043C111.735 27.4731 111.988 27.145 112.163 26.7202C112.342 26.2907 112.432 25.7809 112.432 25.1909V25.1768C112.432 24.582 112.342 24.0723 112.163 23.6475C111.988 23.2227 111.735 22.897 111.405 22.6704C111.075 22.4391 110.676 22.3235 110.208 22.3235C109.746 22.3235 109.347 22.4391 109.012 22.6704C108.677 22.9017 108.42 23.2297 108.24 23.6545C108.061 24.0793 107.971 24.5868 107.971 25.1768V25.1909C107.971 25.7762 108.061 26.2836 108.24 26.7131C108.42 27.1379 108.677 27.466 109.012 27.6973C109.347 27.9285 109.746 28.0442 110.208 28.0442ZM115.688 29V18.3374H116.92V29H115.688ZM122.4 29.1345C121.674 29.1345 121.048 28.974 120.524 28.6531C120.005 28.3321 119.604 27.879 119.321 27.2937C119.042 26.7037 118.903 26.0098 118.903 25.2122V25.2051C118.903 24.4168 119.042 23.7253 119.321 23.1306C119.604 22.5359 120.003 22.071 120.517 21.7358C121.032 21.4007 121.633 21.2332 122.323 21.2332C123.016 21.2332 123.611 21.3936 124.107 21.7146C124.607 22.0356 124.989 22.484 125.254 23.0598C125.523 23.6309 125.657 24.2965 125.657 25.0564V25.5378H119.54V24.5537H125.027L124.418 25.4529V24.9644C124.418 24.3649 124.329 23.8717 124.149 23.4846C123.97 23.0976 123.722 22.8097 123.406 22.6208C123.09 22.4273 122.726 22.3306 122.315 22.3306C121.905 22.3306 121.537 22.432 121.211 22.635C120.89 22.8333 120.635 23.1283 120.446 23.52C120.257 23.9118 120.163 24.3932 120.163 24.9644V25.4529C120.163 25.9957 120.255 26.4606 120.439 26.8477C120.623 27.23 120.885 27.525 121.225 27.7327C121.565 27.9356 121.966 28.0371 122.429 28.0371C122.773 28.0371 123.073 27.9899 123.328 27.8955C123.583 27.8011 123.793 27.6807 123.958 27.5344C124.123 27.3881 124.239 27.2394 124.305 27.0884L124.333 27.0247H125.565L125.551 27.0813C125.485 27.3409 125.367 27.5934 125.197 27.8389C125.032 28.0796 124.817 28.2991 124.553 28.4973C124.288 28.6908 123.975 28.8466 123.611 28.9646C123.252 29.0779 122.849 29.1345 122.4 29.1345ZM127.147 27.521H139.022V28.5215H127.147V27.521ZM132.454 24.708H133.657V27.9415H132.454V24.708ZM128.582 17.9945H137.558V21.9675H129.815V24.592H128.626V20.996H136.369V18.966H128.582V17.9945ZM128.626 24.0845H137.862V25.0705H128.626V24.0845ZM144.564 27.521H156.439V28.5215H144.564V27.521ZM149.871 24.708H151.074V27.9415H149.871V24.708ZM145.999 17.9945H154.975V21.9675H147.232V24.592H146.043V20.996H153.786V18.966H145.999V17.9945ZM146.043 24.0845H155.279V25.0705H146.043V24.0845ZM159.179 18.415H167.618V19.3865H159.179V18.415ZM157.903 27.2165H169.749V28.217H157.903V27.2165ZM166.98 18.415H168.154V19.72C168.154 21.402 168.154 23.2725 167.661 26.1L166.458 25.984C166.98 23.3015 166.98 21.344 166.98 19.72V18.415ZM180.768 17.0375H181.986V26.6075H180.768V17.0375ZM173.562 28.855H182.378V29.841H173.562V28.855ZM173.562 25.6215H174.751V29.1885H173.562V25.6215ZM174.954 17.9365C176.911 17.9365 178.361 19.2705 178.361 21.17C178.361 23.055 176.911 24.4035 174.954 24.4035C172.996 24.4035 171.532 23.055 171.532 21.17C171.532 19.2705 172.996 17.9365 174.954 17.9365ZM174.954 18.9805C173.678 18.9805 172.706 19.8795 172.706 21.17C172.706 22.446 173.678 23.345 174.954 23.345C176.23 23.345 177.201 22.446 177.201 21.17C177.201 19.8795 176.23 18.9805 174.954 18.9805Z" fill="white"/>
</svg>
