<svg width="256" height="161" viewBox="0 0 256 161" fill="none" xmlns="http://www.w3.org/2000/svg">
<path d="M43.3428 8.95029C47.8894 6.67735 55.6835 3.75501 60.3925 2.45619C64.9391 1.15736 73.2204 0.0208963 78.5789 0.0208963C83.9373 -0.141456 92.381 0.670307 97.2524 1.48207C102.124 2.45619 109.431 4.72912 120.797 9.5997L111.055 19.5032C101.474 29.2444 101.312 29.4067 95.6286 27.6208C92.5434 26.6467 85.7235 25.835 80.6898 25.835C75.3313 25.835 67.5371 27.2961 62.8282 29.082C58.1192 30.7055 51.1369 34.4397 47.4022 37.1996C43.5052 39.7973 37.9843 45.9667 35.0615 50.5126C32.1387 55.2208 28.7288 62.0396 27.7545 65.6114C26.7802 69.1831 25.8059 75.6772 25.8059 80.2231C25.8059 84.6066 26.9426 91.9125 28.404 96.4584C29.703 100.842 32.1387 106.687 33.7625 109.447C35.5486 112.207 40.0952 117.239 43.8299 120.649C47.727 124.221 55.034 128.929 59.9054 131.039C66.7253 134.124 71.5966 135.098 80.2027 135.098C88.1592 135.098 94.4919 133.799 101.312 131.202C107.645 128.929 113.653 124.87 118.524 120.162C122.583 116.103 127.455 109.609 129.403 105.712C131.352 101.978 133.787 94.9972 134.762 90.4513C136.223 83.9572 136.223 79.0866 134.762 70.4819C132.813 59.442 132.813 58.9549 136.873 53.4349C139.146 50.3502 143.205 46.129 150.837 40.4467L154.734 48.889C157.008 53.5973 159.606 62.5267 160.58 68.8584C161.879 76.8137 161.879 83.4701 160.742 90.776C159.768 96.6207 157.982 104.576 156.52 108.635C155.059 112.694 151.811 119.188 149.213 123.247C146.615 127.305 140.77 134.287 135.898 138.832C131.189 143.378 124.045 148.898 119.985 151.171C115.926 153.606 108.619 156.691 103.747 158.152C98.5514 159.614 88.9711 160.75 81.0145 160.75C71.9214 160.75 63.6401 159.614 56.6578 157.503C50.8122 155.717 41.3943 151.171 35.711 147.275C29.8654 143.378 22.2336 136.722 18.6613 132.176C15.2514 127.792 10.0553 119.35 7.4572 113.505C4.53439 107.336 1.77396 97.9195 0.799695 90.776C-0.336952 81.8466 -0.336952 75.6772 1.28683 67.2349C2.2611 60.9031 5.50866 51.162 8.26909 45.3173C11.5167 38.4985 17.0375 31.0302 24.0198 24.0491C29.8654 18.2044 38.6338 11.3856 43.3428 8.95029Z" fill="#0F0F0F"/>
<path d="M137.035 9.275C141.419 6.83971 149.213 3.75501 154.085 2.45619C158.956 1.15736 167.725 0.0208963 173.57 0.0208963C179.416 0.0208963 188.671 0.995012 194.355 2.29383C199.875 3.59265 207.832 6.515 212.216 8.62558C216.438 10.7362 224.557 16.7432 230.24 21.9385C238.034 29.2444 242.094 34.7644 246.803 44.5055C251.025 52.9478 253.785 61.7149 254.922 69.6702C256.545 79.8984 256.383 83.9572 254.11 94.8348C252.648 101.978 249.563 111.882 247.127 116.752C244.692 121.623 238.359 130.228 233.001 135.91C227.48 141.592 219.848 148.086 215.788 150.359C211.729 152.795 204.422 156.042 199.551 157.665C193.38 159.776 186.073 160.75 176.006 160.75C165.776 160.75 158.307 159.776 150.837 157.503C144.992 155.555 139.308 153.606 138.172 152.957C136.548 151.983 138.659 148.898 145.479 141.755C154.085 132.663 155.221 131.851 158.956 133.312C161.229 134.287 168.212 134.936 174.382 134.936C181.96 135.044 188.725 133.962 194.679 131.689C199.551 129.741 207.182 125.195 211.567 121.298C216.438 116.915 221.147 110.583 224.07 104.576C226.505 99.2183 229.103 91.5878 229.753 87.529C230.24 83.4701 229.915 75.8396 228.779 70.4819C227.642 65.1243 225.531 58.1431 223.907 55.0584C222.284 51.9737 217.899 46.129 214.002 42.2326C210.105 38.3361 202.798 33.1408 197.927 30.8679C190.782 27.4585 186.398 26.6467 175.194 26.4844C164.315 26.1597 159.768 26.9714 153.435 29.7314C149.051 31.5173 141.906 36.3879 137.685 40.4467C133.138 44.8302 128.104 51.8114 125.506 57.4937C122.746 63.5008 120.797 70.969 120.31 76.976C119.985 82.3337 120.472 89.9642 121.609 94.0231C123.558 101.004 123.395 101.654 118.686 107.823C116.088 111.395 111.866 115.778 109.593 117.564C105.858 120.324 105.047 120.487 103.747 118.376C102.773 117.077 100.662 112.044 98.8761 107.336C97.09 102.79 95.1414 93.536 94.6543 87.2043C94.0048 78.9243 94.4919 71.9431 96.2781 63.9878C97.7395 57.6561 100.825 48.5643 103.423 43.6938C105.858 38.8232 112.516 30.0561 118.362 24.2114C124.207 18.3667 132.488 11.7103 137.035 9.275Z" fill="#0F0F0F"/>
</svg>
