<svg width="240" height="45" viewBox="0 0 240 45" fill="none" xmlns="http://www.w3.org/2000/svg">
<rect width="240" height="45" rx="8" fill="#FEE500"/>
<path opacity="0.902" fill-rule="evenodd" clip-rule="evenodd" d="M29 15C24.29 15 20 18.786 20 21.989C20 24.389 21.558 26.506 23.931 27.764L22.933 31.43C22.844 31.755 23.213 32.013 23.496 31.826L27.873 28.921C28.242 28.957 28.618 28.978 29 28.978C33.97 28.978 38 25.849 38 21.989C38 18.786 33.97 15 29 15Z" fill="black"/>
<path d="M92.293 17.386H93.4675C93.4675 21.1705 92.1915 24.6505 87.4935 26.985L86.841 26.057C90.988 24.0125 92.293 21.0835 92.293 17.5165V17.386ZM87.5515 17.386H93.0035V18.3575H87.5515V17.386ZM92.1045 20.634V21.562L87.0875 22.055L86.899 20.982L92.1045 20.634ZM95.5845 16.0085H96.8025V29.131H95.5845V16.0085ZM96.469 21.33H98.8905V22.3305H96.469V21.33ZM105.632 17.386H106.806C106.806 21.1705 105.53 24.6505 100.832 26.985L100.18 26.057C104.327 24.0125 105.632 21.0835 105.632 17.5165V17.386ZM100.89 17.386H106.342V18.3575H100.89V17.386ZM105.443 20.634V21.562L100.426 22.055L100.238 20.982L105.443 20.634ZM108.923 16.0085H110.141V29.131H108.923V16.0085ZM109.808 21.33H112.229V22.3305H109.808V21.33ZM118.71 23.4325H119.913V26.695H118.71V23.4325ZM119.319 16.8785C122.088 16.8785 124.075 18.227 124.075 20.315C124.075 22.403 122.088 23.7515 119.319 23.7515C116.549 23.7515 114.548 22.403 114.548 20.315C114.548 18.227 116.549 16.8785 119.319 16.8785ZM119.319 17.8355C117.231 17.8355 115.708 18.8215 115.708 20.315C115.708 21.8085 117.231 22.7945 119.319 22.7945C121.392 22.7945 122.915 21.8085 122.915 20.315C122.915 18.8215 121.392 17.8355 119.319 17.8355ZM113.403 26.463H125.278V27.4635H113.403V26.463ZM126.742 26.521H138.617V27.5215H126.742V26.521ZM132.049 23.708H133.252V26.9415H132.049V23.708ZM128.177 16.9945H137.153V20.9675H129.41V23.592H128.221V19.996H135.964V17.966H128.177V16.9945ZM128.221 23.0845H137.457V24.0705H128.221V23.0845ZM144.159 26.521H156.034V27.5215H144.159V26.521ZM149.466 23.708H150.669V26.9415H149.466V23.708ZM145.594 16.9945H154.57V20.9675H146.827V23.592H145.638V19.996H153.381V17.966H145.594V16.9945ZM145.638 23.0845H154.874V24.0705H145.638V23.0845ZM158.773 17.415H167.212V18.3865H158.773V17.415ZM157.497 26.2165H169.344V27.217H157.497V26.2165ZM166.574 17.415H167.749V18.72C167.749 20.402 167.749 22.2725 167.256 25.1L166.052 24.984C166.574 22.3015 166.574 20.344 166.574 18.72V17.415ZM180.363 16.0375H181.581V25.6075H180.363V16.0375ZM173.156 27.855H181.972V28.841H173.156V27.855ZM173.156 24.6215H174.345V28.1885H173.156V24.6215ZM174.548 16.9365C176.506 16.9365 177.956 18.2705 177.956 20.17C177.956 22.055 176.506 23.4035 174.548 23.4035C172.591 23.4035 171.126 22.055 171.126 20.17C171.126 18.2705 172.591 16.9365 174.548 16.9365ZM174.548 17.9805C173.272 17.9805 172.301 18.8795 172.301 20.17C172.301 21.446 173.272 22.345 174.548 22.345C175.824 22.345 176.796 21.446 176.796 20.17C176.796 18.8795 175.824 17.9805 174.548 17.9805Z" fill="black"/>
</svg>
