<svg width="175" height="110" viewBox="0 0 175 110" fill="none" xmlns="http://www.w3.org/2000/svg">
<path d="M29.6289 6.12462C32.7369 4.56926 38.0649 2.56952 41.2839 1.68075C44.392 0.791976 50.053 0.0142992 53.716 0.0142992C57.379 -0.0967975 63.1511 0.458686 66.4811 1.01417C69.8111 1.68075 74.8062 3.2361 82.5762 6.569L75.9162 13.3459C69.3671 20.0117 69.2561 20.1228 65.3711 18.9007C63.2621 18.2342 58.6001 17.6787 55.159 17.6787C51.496 17.6787 46.168 18.6785 42.949 19.9006C39.7299 21.0116 34.9569 23.5668 32.4039 25.4554C29.7399 27.233 25.9658 31.4547 23.9678 34.5654C21.9698 37.7872 19.6388 42.4532 18.9728 44.8974C18.3068 47.3415 17.6408 51.7853 17.6408 54.8961C17.6408 57.8957 18.4178 62.895 19.4168 66.0057C20.3048 69.0053 21.9698 73.0048 23.0798 74.8935C24.3008 76.7821 27.4088 80.2261 29.9619 82.5591C32.6259 85.0033 37.6209 88.225 40.9509 89.6693C45.613 91.7801 48.943 92.4467 54.826 92.4467C60.2651 92.4467 64.5941 91.558 69.2561 89.7804C73.5852 88.2251 77.6922 85.4476 81.0222 82.2258C83.7972 79.4484 87.1272 75.0045 88.4593 72.3382C89.7913 69.783 91.4563 65.0059 92.1223 61.8951C93.1213 57.4513 93.1213 54.1184 92.1223 48.2303C90.7903 40.6757 90.7903 40.3424 93.5653 36.5651C95.1193 34.4543 97.8943 31.5658 103.111 27.6774L105.775 33.4544C107.329 36.6762 109.105 42.7865 109.771 47.1193C110.659 52.563 110.659 57.118 109.882 62.1173C109.216 66.1168 107.995 71.5605 106.996 74.338C105.997 77.1154 103.777 81.5593 102.001 84.3367C100.225 87.1141 96.2293 91.8912 92.8993 95.0019C89.6803 98.1127 84.7962 101.89 82.0212 103.445C79.2462 105.112 74.2512 107.223 70.9211 108.222C67.3691 109.222 60.8201 110 55.381 110C49.165 110 43.504 109.222 38.7309 107.778C34.7349 106.556 28.2969 103.445 24.4118 100.779C20.4158 98.1126 15.1988 93.5577 12.7567 90.447C10.4257 87.4474 6.87371 81.6703 5.0977 77.6709C3.09968 73.4492 1.21267 67.0056 0.546667 62.1173C-0.230338 56.007 -0.230338 51.7853 0.879669 46.0083C1.54567 41.6756 3.76569 35.0097 5.6527 31.0103C7.87272 26.3442 11.6467 21.2338 16.4198 16.4566C20.4158 12.4571 26.4098 7.79107 29.6289 6.12462Z" fill="#0F0F0F"/>
<path d="M93.6763 6.34681C96.6733 4.68036 102.001 2.56952 105.331 1.68075C108.661 0.791976 114.655 0.0142992 118.651 0.0142992C122.647 0.0142992 128.975 0.680879 132.86 1.56965C136.634 2.45843 142.073 4.45817 145.07 5.90242C147.956 7.34668 153.506 11.4573 157.391 15.0123C162.719 20.0117 165.494 23.789 168.713 30.4548C171.599 36.2318 173.486 42.231 174.263 47.6748C175.373 54.6739 175.262 57.4513 173.708 64.8948C172.709 69.783 170.6 76.5599 168.935 79.8928C167.27 83.2257 162.941 89.1138 159.278 93.0022C155.504 96.8906 150.287 101.334 147.512 102.89C144.737 104.556 139.742 106.778 136.412 107.889C132.194 109.333 127.199 110 120.316 110C113.323 110 108.217 109.333 103.111 107.778C99.1153 106.445 95.2303 105.112 94.4533 104.667C93.3433 104.001 94.7863 101.89 99.4483 97.0017C105.331 90.7803 106.108 90.2248 108.661 91.2247C110.215 91.8912 114.988 92.3356 119.206 92.3356C124.386 92.4097 129.012 91.669 133.082 90.1137C136.412 88.7805 141.629 85.6698 144.626 83.0035C147.956 80.0039 151.175 75.6711 153.173 71.5605C154.838 67.8944 156.614 62.6728 157.058 59.8954C157.391 57.118 157.169 51.8964 156.392 48.2303C155.615 44.5641 154.172 39.7869 153.062 37.6761C151.952 35.5652 148.955 31.5658 146.291 28.8994C143.627 26.2331 138.632 22.678 135.302 21.1227C130.418 18.7896 127.421 18.2342 119.761 18.1231C112.324 17.9009 109.216 18.4563 104.887 20.345C101.89 21.5671 97.0063 24.9 94.1203 27.6774C91.0123 30.677 87.5713 35.4541 85.7952 39.3425C83.9082 43.4531 82.5762 48.5635 82.2432 52.6741C82.0212 56.3403 82.3542 61.5619 83.1312 64.3393C84.4632 69.1164 84.3522 69.5608 81.1332 73.7825C79.3572 76.2266 76.4712 79.2262 74.9172 80.4483C72.3642 82.3369 71.8091 82.448 70.9211 81.0038C70.2551 80.115 68.8121 76.671 67.5911 73.4492C66.3701 70.3385 65.0381 64.006 64.7051 59.6732C64.2611 54.0073 64.5941 49.2301 65.8151 43.7864C66.8141 39.4536 68.9231 33.2322 70.6991 29.8993C72.3642 26.5664 76.9152 20.5672 80.9112 16.5677C84.9072 12.5682 90.5683 8.01326 93.6763 6.34681Z" fill="#0F0F0F"/>
</svg>
