<svg width="39" height="24" viewBox="0 0 39 24" fill="none" xmlns="http://www.w3.org/2000/svg">
<path d="M6.47752 1.33628C7.15701 0.99693 8.32183 0.560623 9.02558 0.366709C9.70506 0.172795 10.9427 0.00311982 11.7435 0.00311982C12.5443 -0.0211195 13.8062 0.100077 14.5342 0.221273C15.2623 0.366709 16.3543 0.706059 18.053 1.43324L16.597 2.91183C15.1652 4.36619 15.1409 4.39043 14.2916 4.1238C13.8305 3.97836 12.8113 3.85716 12.059 3.85716C11.2582 3.85716 10.0933 4.07532 9.38959 4.34195C8.68584 4.58434 7.64235 5.14185 7.0842 5.55391C6.50179 5.94174 5.67671 6.86283 5.2399 7.54153C4.80309 8.24447 4.29347 9.26252 4.14787 9.79579C4.00227 10.3291 3.85666 11.2986 3.85666 11.9773C3.85666 12.6318 4.02653 13.7225 4.24494 14.4012C4.43908 15.0557 4.80309 15.9283 5.04576 16.3404C5.3127 16.7525 5.99218 17.5039 6.55033 18.0129C7.13274 18.5462 8.22476 19.2491 8.95278 19.5642C9.972 20.0248 10.7 20.1702 11.9862 20.1702C13.1753 20.1702 14.1217 19.9763 15.1409 19.5885C16.0873 19.2491 16.9852 18.6431 17.7132 17.9402C18.3199 17.3342 19.0479 16.3646 19.3391 15.7829C19.6304 15.2254 19.9944 14.1831 20.14 13.5044C20.3584 12.5348 20.3584 11.8076 20.14 10.523C19.8488 8.87469 19.8488 8.80198 20.4554 7.97784C20.7952 7.51729 21.4019 6.88707 22.5424 6.0387L23.1248 7.29914C23.4646 8.00208 23.8528 9.33524 23.9985 10.2806C24.1926 11.4683 24.1926 12.4621 24.0227 13.5529C23.8771 14.4255 23.6102 15.6132 23.3918 16.2192C23.1734 16.8252 22.688 17.7947 22.2997 18.4007C21.9115 19.0067 21.0379 20.049 20.3098 20.7277C19.6061 21.4064 18.5383 22.2305 17.9316 22.5699C17.325 22.9335 16.2329 23.394 15.5049 23.6122C14.7284 23.8303 13.2966 24 12.1075 24C10.7486 24 9.51093 23.8303 8.46743 23.5152C7.59382 23.2486 6.18632 22.5699 5.33696 21.9881C4.46334 21.4064 3.32279 20.4126 2.78891 19.7339C2.2793 19.0794 1.50274 17.819 1.11447 16.9464C0.677659 16.0253 0.265117 14.6194 0.119513 13.5529C-0.0503571 12.2197 -0.0503571 11.2986 0.192315 10.0382C0.337918 9.09285 0.823263 7.63849 1.23581 6.76588C1.72115 5.74783 2.54623 4.63282 3.58972 3.59053C4.46334 2.71792 5.77377 1.69987 6.47752 1.33628Z" fill="#999999"/>
<path d="M20.4797 1.38476C21.1349 1.02117 22.2997 0.560623 23.0278 0.366709C23.7558 0.172795 25.0662 0.00311982 25.9398 0.00311982C26.8134 0.00311982 28.1967 0.148555 29.046 0.34247C29.8711 0.536384 31.0602 0.972691 31.7154 1.2878C32.3464 1.60291 33.5597 2.49976 34.4091 3.27542C35.5739 4.36619 36.1806 5.19032 36.8843 6.64468C37.5153 7.90512 37.9278 9.21404 38.0977 10.4018C38.3404 11.9288 38.3161 12.5348 37.9764 14.1589C37.758 15.2254 37.2969 16.704 36.9329 17.4312C36.5689 18.1583 35.6224 19.443 34.8216 20.2914C33.9965 21.1398 32.856 22.1093 32.2493 22.4487C31.6426 22.8123 30.5506 23.2971 29.8226 23.5395C28.9004 23.8546 27.8084 24 26.3038 24C24.775 24 23.6587 23.8546 22.5424 23.5152C21.6688 23.2243 20.8194 22.9335 20.6496 22.8365C20.4069 22.6911 20.7224 22.2305 21.7416 21.164C23.0278 19.8066 23.1976 19.6854 23.7558 19.9036C24.0955 20.049 25.139 20.146 26.0612 20.146C27.1936 20.1621 28.2048 20.0005 29.0946 19.6612C29.8226 19.3703 30.9631 18.6916 31.6184 18.1099C32.3464 17.4554 33.0501 16.5101 33.4869 15.6132C33.8509 14.8133 34.2392 13.6741 34.3363 13.0681C34.4091 12.4621 34.3605 11.3229 34.1907 10.523C34.0208 9.72307 33.7053 8.68078 33.4627 8.22023C33.22 7.75969 32.5648 6.88707 31.9824 6.30533C31.4 5.72359 30.3079 4.94793 29.5799 4.60858C28.5122 4.09956 27.8569 3.97836 26.1825 3.95412C24.5566 3.90564 23.8771 4.02684 22.9307 4.43891C22.2755 4.70554 21.2077 5.43272 20.5768 6.0387C19.8973 6.69316 19.145 7.73545 18.7567 8.58382C18.3442 9.48068 18.053 10.5957 17.9802 11.4925C17.9316 12.2924 18.0044 13.4317 18.1743 14.0377C18.4655 15.0799 18.4413 15.1769 17.7375 16.098C17.3492 16.6313 16.7183 17.2857 16.3785 17.5524C15.8204 17.9644 15.6991 17.9887 15.5049 17.6735C15.3593 17.4796 15.0438 16.7282 14.7769 16.0253C14.51 15.3466 14.2188 13.9649 14.146 13.0196C14.0489 11.7834 14.1217 10.7411 14.3886 9.55339C14.607 8.60806 15.0681 7.25066 15.4564 6.52348C15.8204 5.79631 16.8154 4.48739 17.689 3.61477C18.5626 2.74216 19.8002 1.74835 20.4797 1.38476Z" fill="#999999"/>
</svg>
